<svg width="150" height="46" viewBox="0 0 150 46" fill="none" xmlns="http://www.w3.org/2000/svg">
<path d="M23.0315 2.80774C20.3172 2.80774 17.6293 3.33009 15.1216 4.34478C12.6139 5.35959 10.3354 6.84689 8.41604 8.72189C6.49675 10.597 4.97431 12.8229 3.93553 15.2727C2.89687 17.7226 2.36218 20.3484 2.36218 23C2.36218 25.6517 2.89687 28.2775 3.93553 30.7274C4.97431 33.1772 6.49675 35.4031 8.41604 37.2782C10.3354 39.1532 12.6139 40.6405 15.1216 41.6553C17.6293 42.67 20.3172 43.1924 23.0315 43.1924V33.0962C21.6743 33.0962 20.3304 32.8351 19.0766 32.3276C17.8227 31.8203 16.6834 31.0766 15.7238 30.1391C14.7641 29.2016 14.0029 28.0886 13.4836 26.8637C12.9641 25.6388 12.6968 24.3259 12.6968 23C12.6968 21.6742 12.9641 20.3613 13.4836 19.1364C14.0029 17.9115 14.7641 16.7985 15.7238 15.861C16.6834 14.9235 17.8227 14.1798 19.0766 13.6725C20.3304 13.165 21.6743 12.9039 23.0315 12.9039V2.80774Z" fill="#21A038"/>
<path d="M23.0316 29.7307C26.8367 29.7307 29.9213 26.7174 29.9213 23C29.9213 19.2827 26.8367 16.2693 23.0316 16.2693C19.2264 16.2693 16.1418 19.2827 16.1418 23C16.1418 26.7174 19.2264 29.7307 23.0316 29.7307Z" fill="#21A038"/>
<path d="M2.36218 23C2.36218 25.6517 2.89687 28.2775 3.93553 30.7273C4.97431 33.1772 6.49675 35.403 8.41604 37.2782C10.3354 39.1532 12.6139 40.6405 15.1216 41.6553C17.6293 42.67 20.3172 43.1923 23.0315 43.1923C25.7458 43.1923 28.4336 42.67 30.9413 41.6553C33.449 40.6405 35.7275 39.1532 37.6469 37.2782C39.5662 35.403 41.0886 33.1772 42.1274 30.7273C43.1661 28.2775 43.7008 25.6517 43.7008 23H33.3661C33.3661 24.3259 33.0988 25.6387 32.5794 26.8637C32.0601 28.0886 31.2988 29.2016 30.3392 30.1391C29.3795 31.0766 28.2403 31.8202 26.9864 32.3276C25.7325 32.835 24.3887 33.0962 23.0315 33.0962C21.6743 33.0962 20.3304 32.835 19.0766 32.3276C17.8227 31.8202 16.6834 31.0766 15.7238 30.1391C14.7641 29.2016 14.0029 28.0886 13.4836 26.8637C12.9641 25.6387 12.6968 24.3259 12.6968 23H2.36218Z" fill="#21A038"/>
<path d="M29.9213 23C29.9213 21.2149 29.1954 19.5029 27.9034 18.2406C26.6113 16.9783 24.8588 16.2692 23.0316 16.2692C21.2043 16.2692 19.4519 16.9783 18.1598 18.2406C16.8676 19.5029 16.1417 21.2149 16.1417 23H23.0316H29.9213Z" fill="#21A038"/>
<path d="M54.4956 15.4135H51.9285V29.3461H54.4956V15.4135Z" fill="#2C3136"/>
<path d="M56.1719 24.41C56.1719 27.6344 58.4538 29.6248 61.4691 29.6248C64.4845 29.6248 66.7664 27.6344 66.7664 24.41C66.7664 21.1856 64.4845 19.1952 61.4691 19.1952C58.4538 19.1952 56.1719 21.1856 56.1719 24.41ZM58.739 24.41C58.739 22.4992 59.8799 21.3846 61.4691 21.3846C63.0583 21.3846 64.1992 22.4992 64.1992 24.41C64.1992 26.3208 63.0583 27.4354 61.4691 27.4354C59.8799 27.4354 58.739 26.3208 58.739 24.41Z" fill="#2C3136"/>
<path d="M75.9402 19.4738V20.8073H75.7364C75.1252 19.9515 74.1472 19.1952 72.3951 19.1952C69.9909 19.1952 67.8313 21.1856 67.8313 24.2508C67.8313 27.316 69.9909 29.3063 72.3951 29.3063C74.1472 29.3063 75.1252 28.53 75.6957 27.7538H75.8994V28.7092C75.8994 30.62 74.7585 31.4958 73.0878 31.4958C71.4171 31.4958 70.5614 30.62 70.215 29.4854L67.9128 30.4608C68.4425 31.9535 69.9909 33.6056 73.1285 33.6056C76.3476 33.6056 78.4665 31.9535 78.4665 28.7689V19.4738H75.9402ZM73.1693 27.1567C71.5801 27.1567 70.3984 26.0421 70.3984 24.2508C70.3984 22.4594 71.5801 21.3448 73.1693 21.3448C74.7585 21.3448 75.9402 22.4594 75.9402 24.2508C75.9402 26.0421 74.7585 27.1567 73.1693 27.1567Z" fill="#2C3136"/>
<path d="M80.1273 24.41C80.1273 27.6344 82.4092 29.6248 85.4246 29.6248C88.4399 29.6248 90.7217 27.6344 90.7217 24.41C90.7217 21.1856 88.4399 19.1952 85.4246 19.1952C82.4092 19.1952 80.1273 21.1856 80.1273 24.41ZM82.6944 24.41C82.6944 22.4992 83.8354 21.3846 85.4246 21.3846C87.0137 21.3846 88.1547 22.4992 88.1547 24.41C88.1547 26.3208 87.0137 27.4354 85.4246 27.4354C83.8354 27.4354 82.6944 26.3208 82.6944 24.41Z" fill="#2C3136"/>
<path d="M92.7366 16.6077C92.7366 17.6229 93.5315 18.3195 94.5507 18.3195C95.5689 18.3195 96.3637 17.6229 96.3637 16.6077C96.3637 15.5927 95.5689 14.896 94.5507 14.896C93.5315 14.896 92.7366 15.5927 92.7366 16.6077ZM95.8334 19.4739H93.2669V29.3462H95.8334V19.4739Z" fill="#2C3136"/>
<path d="M98.1212 33.3269H100.689V28.0723H100.892C101.463 28.8685 102.441 29.6248 104.193 29.6248C106.597 29.6248 108.757 27.6344 108.757 24.41C108.757 21.1856 106.597 19.1952 104.193 19.1952C102.441 19.1952 101.463 19.9515 100.852 20.8075H100.648V19.4738H98.1212V33.3269ZM103.418 27.4752C101.83 27.4752 100.648 26.3606 100.648 24.41C100.648 22.4594 101.83 21.3448 103.418 21.3448C105.008 21.3448 106.189 22.4594 106.189 24.41C106.189 26.3606 105.008 27.4752 103.418 27.4752Z" fill="#2C3136"/>
<path d="M110.255 22.2405C110.255 24.1911 111.925 24.9077 114.044 25.3057L114.574 25.4052C115.837 25.644 116.407 25.9427 116.407 26.5796C116.407 27.2165 115.837 27.714 114.656 27.714C113.473 27.714 112.517 27.2363 112.251 25.8033L109.887 26.4004C110.235 28.4704 112.006 29.6248 114.656 29.6248C117.222 29.6248 118.893 28.4505 118.893 26.3805C118.893 24.3104 117.182 23.7532 114.9 23.3153L114.37 23.2158C113.31 23.0167 112.74 22.7381 112.74 22.0813C112.74 21.4842 113.27 21.106 114.248 21.106C115.226 21.106 115.918 21.504 116.163 22.5788L118.486 21.8823C117.997 20.29 116.51 19.1952 114.248 19.1952C111.843 19.1952 110.255 20.29 110.255 22.2405Z" fill="#2C3136"/>
<path d="M130.424 29.3462V19.4739H127.858V24.5693C127.858 26.4004 126.941 27.4752 125.372 27.4752C123.986 27.4752 123.213 26.7388 123.213 25.246V19.4739H120.645V25.3654C120.645 27.8136 122.215 29.5054 124.578 29.5054C126.431 29.5054 127.287 28.7093 127.695 27.8733H127.898V29.3462H130.424Z" fill="#2C3136"/>
<path d="M132.702 19.4738V29.3461H135.269V23.4546C135.269 22.1011 135.921 21.3448 137.102 21.3448C138.122 21.3448 138.732 21.9021 138.732 22.9769V29.3461H141.3V23.4546C141.3 22.1011 141.952 21.3448 143.133 21.3448C144.152 21.3448 144.763 21.9021 144.763 22.9769V29.3461H147.331V22.8575C147.331 20.469 145.822 19.3146 143.948 19.3146C142.298 19.3146 141.544 20.0311 141.055 20.8671H140.851C140.382 19.9317 139.547 19.3146 138.08 19.3146C136.613 19.3146 135.818 19.9515 135.432 20.7078H135.228V19.4738H132.702Z" fill="#2C3136"/>
</svg>
